<svg width="114" height="89" viewBox="0 0 114 89" fill="none" xmlns="http://www.w3.org/2000/svg">
<path d="M113.773 49.694L89.0707 1.23956C88.3581 0.289474 87.1705 -0.423091 85.9829 0.289474L38.0035 24.5167H2.37522C0.950087 24.5167 0 25.4668 0 26.8919C0 28.3171 0.950087 29.2671 2.37522 29.2671H28.7401L17.3391 35.2052H7.12565C5.70052 35.2052 4.75044 36.1553 4.75044 37.5804C4.75044 39.0055 5.70052 39.9556 7.12565 39.9556H16.389L19.4768 45.8937H12.3511C10.926 45.8937 9.97591 46.8438 9.97591 48.2689C9.97591 49.694 10.926 50.6441 12.3511 50.6441H21.852L40.6162 87.2225C41.0913 88.1725 42.5164 88.8851 43.704 88.1725L112.823 53.0193C113.773 52.3068 114.248 50.8816 113.773 49.694ZM82.6576 7.17761C79.8073 15.2533 89.7832 -13.2493 69.1188 46.3687C67.2187 51.1191 61.7557 48.5064 61.0431 48.5064L24.2272 37.1054L82.6576 7.17761ZM42.5164 80.8094L22.5646 41.3807C57.4803 52.0692 56.5302 51.8317 57.0052 52.0692L42.5164 80.8094ZM47.9794 80.8094L61.7557 53.4944L62.7058 53.7319C71.2565 55.8696 73.8693 47.3188 74.1068 47.0813L104.272 52.0692L47.9794 80.8094ZM75.7695 42.5684C80.9949 27.6045 84.5578 16.6785 87.408 8.36522L107.36 47.7938L75.7695 42.5684Z" fill="#494949"/>
</svg>
