<svg width="48" height="64" viewBox="0 0 48 64" fill="none" xmlns="http://www.w3.org/2000/svg">
<path d="M5.09508 53.0183C4.06104 55.5164 3.61122 58.318 3.56707 61.7585C3.55443 62.7435 2.74568 63.5317 1.76069 63.5191C0.775707 63.5064 -0.0124906 62.6977 0.000149938 61.7127C0.0565338 57.3192 0.950694 53.5427 2.65109 50.206C-2.16141 42.7956 -0.475403 29.8486 9.56197 21.9193C13.651 18.689 17.1474 17.0609 23.4133 14.9564C23.6554 14.8751 23.9226 14.7857 24.4271 14.6169C24.8355 14.4802 25.134 14.3798 25.4266 14.2805C33.4084 11.5712 37.4625 8.91891 41.975 2.15014L43.4085 0L44.9105 2.10281C51.7189 11.6345 46.5582 38.9216 36.4143 49.0655C26.8433 58.6365 13.1577 60.1821 5.09508 53.0183ZM6.86934 49.7896C6.87423 49.7945 6.87913 49.7994 6.88403 49.8043C13.3184 56.2387 25.3234 55.1116 33.8919 46.5431C42.1385 38.2965 46.8603 16.3104 43.2274 6.54309C38.8042 12.3477 34.2436 15.0549 26.5731 17.6584C26.275 17.7596 25.9724 17.8614 25.5597 17.9996C25.054 18.1688 24.789 18.2574 24.5491 18.338C18.6402 20.3225 15.4679 21.7998 11.7733 24.7185C3.88301 30.9517 2.08089 40.6648 4.81323 46.7467C5.23843 46.1795 5.69134 45.6254 6.17163 45.0832C9.12964 41.7438 11.9079 39.7191 18.9806 35.2456C27.7499 29.6992 31.4063 26.6979 34.3955 21.6005C34.8938 20.7507 35.9866 20.4658 36.8363 20.9641C37.6861 21.4624 37.9709 22.5552 37.4726 23.4049C34.1012 29.1542 30.126 32.4172 20.8875 38.2605C13.9004 42.6797 9.49044 46.0298 6.86934 49.7896Z" fill="#65D40D"/>
</svg>
