<svg width="103" height="48" viewBox="0 0 103 48" fill="none" xmlns="http://www.w3.org/2000/svg">
<path d="M98.8604 23.4392C96.0955 21.2974 91.8846 19.585 86.2275 18.3018C83.1426 17.5956 81.0754 16.933 80.0257 16.314C78.976 15.695 78.4506 14.8542 78.4496 13.7918C78.4496 12.8627 78.8354 12.1113 79.6068 11.5375C80.3783 10.9637 81.4927 10.6763 82.95 10.6752C87.1488 10.6752 91.3485 12.1991 95.5493 15.2468L101.785 6.16522C96.8135 2.05613 90.6423 0.00105092 83.271 0C80.498 0 78.0211 0.377281 75.8402 1.13184L42.2355 1.08613L42.2462 1.07352H27.6352L12.3241 19.6748V1.07352H0V46.932H12.3241V35.0729L25.4064 20.7688L25.4171 20.7846L33.0742 11.8165H55.5456L35.1731 35.4512L27.2576 23.5842L18.7338 32.7919L28.0159 46.932H75.9411C78.843 47.6608 81.8207 48.0192 84.8073 47.9992C90.337 47.9992 94.7513 46.6514 98.0502 43.9558C101.349 41.2602 102.999 37.5699 103 32.8849C103.004 28.7327 101.624 25.5841 98.8604 23.4392ZM85.2644 37.3271C80.0313 37.3271 75.1671 35.4722 70.6718 31.7625L67.0763 36.1921H50.261L66.1026 17.8084C66.2833 18.8761 66.6096 19.912 67.0718 20.8855C67.887 22.5669 69.1406 23.9478 70.8323 25.0282C72.47 26.0858 74.2162 26.9534 76.0389 27.615C78.2651 28.3871 80.5285 29.0401 82.8201 29.5713C85.8193 30.2796 87.8336 30.9533 88.8629 31.5922C89.8922 32.2312 90.4074 33.0378 90.4084 34.012C90.4084 36.2221 88.6937 37.3271 85.2644 37.3271Z" fill="white"/>
</svg>
